<!-- Generator: Adobe Illustrator 19.0.0, SVG Export Plug-In  -->
<svg version="1.1"
	 xmlns="http://www.w3.org/2000/svg" xmlns:xlink="http://www.w3.org/1999/xlink" xmlns:a="http://ns.adobe.com/AdobeSVGViewerExtensions/3.0/"
	 x="0px" y="0px" width="304.944px" height="289.067px" viewBox="0 0 304.944 289.067"
	 style="enable-background:new 0 0 304.944 289.067;" xml:space="preserve">
<style type="text/css">
	.st0{fill:#39B54A;}
	.st1{fill:none;stroke:#39B54A;stroke-width:3;stroke-miterlimit:10;}
	.st2{opacity:0.35;}
	.st3{fill:none;stroke:#39B54A;stroke-width:3;stroke-miterlimit:10;stroke-dasharray:28.6784,28.6784;}
</style>
<defs>
</defs>
<g id="XMLID_32_">
	<path id="XMLID_61_" class="st0" d="M5.4,273.885v14.532H0v-35.786h6.119c2.997,0,5.261,0.209,6.791,0.626
		c1.544,0.417,2.904,1.205,4.079,2.364c2.055,2.009,3.083,4.543,3.083,7.603c0,3.275-1.097,5.871-3.292,7.787
		c-2.194,1.916-5.153,2.874-8.876,2.874H5.4z M5.4,268.88h2.017c4.96,0,7.44-1.908,7.44-5.726c0-3.692-2.558-5.539-7.672-5.539H5.4
		V268.88z"/>
	<path id="XMLID_59_" class="st0" d="M24.637,265.843h5.215v2.016c0.958-1.004,1.808-1.691,2.55-2.062
		c0.757-0.386,1.653-0.579,2.688-0.579c1.375,0,2.812,0.448,4.311,1.344l-2.387,4.774c-0.989-0.71-1.955-1.065-2.897-1.065
		c-2.843,0-4.265,2.147-4.265,6.443v11.704h-5.215V265.843z"/>
	<path id="XMLID_56_" class="st0" d="M58.708,265.843h5.238v22.574h-5.238v-2.364c-2.148,2.009-4.458,3.014-6.93,3.014
		c-3.121,0-5.702-1.128-7.741-3.385c-2.024-2.302-3.036-5.176-3.036-8.621c0-3.385,1.012-6.204,3.036-8.46
		c2.024-2.256,4.558-3.384,7.602-3.384c2.627,0,4.983,1.081,7.069,3.244V265.843z M46.332,277.061c0,2.163,0.58,3.925,1.738,5.284
		c1.19,1.375,2.688,2.062,4.497,2.062c1.931,0,3.492-0.664,4.682-1.993c1.19-1.375,1.785-3.121,1.785-5.238
		c0-2.116-0.595-3.862-1.785-5.238c-1.19-1.344-2.735-2.016-4.635-2.016c-1.792,0-3.292,0.68-4.497,2.039
		C46.926,273.338,46.332,275.037,46.332,277.061z"/>
	<path id="XMLID_54_" class="st0" d="M88.097,266.816v6.931c-1.19-1.452-2.256-2.449-3.198-2.99
		c-0.927-0.557-2.017-0.834-3.268-0.834c-1.962,0-3.592,0.688-4.891,2.062c-1.298,1.375-1.947,3.098-1.947,5.169
		c0,2.116,0.626,3.854,1.877,5.215c1.267,1.359,2.882,2.039,4.844,2.039c1.251,0,2.356-0.271,3.314-0.812
		c0.927-0.524,2.017-1.545,3.268-3.059v6.883c-2.117,1.098-4.234,1.646-6.351,1.646c-3.492,0-6.412-1.128-8.761-3.385
		c-2.349-2.271-3.523-5.091-3.523-8.459s1.189-6.212,3.569-8.529c2.379-2.318,5.299-3.477,8.761-3.477
		C84.018,265.217,86.119,265.751,88.097,266.816z"/>
	<path id="XMLID_52_" class="st0" d="M98.527,270.711v17.707h-5.215v-17.707h-2.225v-4.867h2.225v-8.274h5.215v8.274h4.056v4.867
		H98.527z"/>
	<path id="XMLID_49_" class="st0" d="M105.34,256.457c0-0.912,0.333-1.7,0.997-2.364c0.664-0.664,1.46-0.997,2.387-0.997
		c0.942,0,1.746,0.333,2.41,0.997c0.664,0.648,0.997,1.444,0.997,2.387c0,0.943-0.333,1.746-0.997,2.411
		c-0.649,0.664-1.445,0.996-2.387,0.996s-1.746-0.332-2.41-0.996C105.673,258.225,105.34,257.415,105.34,256.457z M111.343,265.843
		v22.574h-5.215v-22.574H111.343z"/>
	<path id="XMLID_47_" class="st0" d="M139.18,257.963l-4.38,2.596c-0.819-1.421-1.599-2.349-2.341-2.781
		c-0.773-0.494-1.77-0.741-2.99-0.741c-1.499,0-2.743,0.425-3.731,1.274c-0.989,0.835-1.483,1.886-1.483,3.152
		c0,1.746,1.298,3.152,3.894,4.218l3.569,1.461c2.905,1.174,5.029,2.607,6.374,4.299c1.344,1.692,2.017,3.767,2.017,6.224
		c0,3.291-1.098,6.011-3.292,8.158c-2.209,2.163-4.952,3.245-8.228,3.245c-3.106,0-5.671-0.92-7.695-2.759
		c-1.994-1.838-3.237-4.427-3.732-7.764l5.47-1.206c0.247,2.102,0.68,3.555,1.298,4.357c1.112,1.546,2.735,2.318,4.867,2.318
		c1.684,0,3.083-0.564,4.195-1.692c1.113-1.128,1.669-2.557,1.669-4.288c0-0.695-0.097-1.332-0.29-1.912
		c-0.193-0.579-0.495-1.112-0.904-1.599c-0.409-0.487-0.938-0.942-1.587-1.368c-0.649-0.424-1.422-0.83-2.318-1.217l-3.453-1.437
		c-4.898-2.07-7.347-5.099-7.347-9.086c0-2.688,1.027-4.937,3.083-6.744c2.055-1.823,4.612-2.735,7.671-2.735
		C133.64,251.936,136.862,253.946,139.18,257.963z"/>
	<path id="XMLID_45_" class="st0" d="M163.191,266.816v6.931c-1.19-1.452-2.256-2.449-3.198-2.99
		c-0.927-0.557-2.017-0.834-3.268-0.834c-1.962,0-3.592,0.688-4.891,2.062c-1.298,1.375-1.947,3.098-1.947,5.169
		c0,2.116,0.626,3.854,1.877,5.215c1.267,1.359,2.882,2.039,4.844,2.039c1.251,0,2.356-0.271,3.314-0.812
		c0.927-0.524,2.017-1.545,3.268-3.059v6.883c-2.117,1.098-4.234,1.646-6.351,1.646c-3.492,0-6.412-1.128-8.761-3.385
		c-2.349-2.271-3.523-5.091-3.523-8.459s1.189-6.212,3.569-8.529c2.379-2.318,5.299-3.477,8.761-3.477
		C159.112,265.217,161.213,265.751,163.191,266.816z"/>
	<path id="XMLID_41_" class="st0" d="M189.289,252.632v30.71h10.522v5.076h-15.923v-35.786H189.289z"/>
	<path id="XMLID_38_" class="st0" d="M220.578,265.843h5.238v22.574h-5.238v-2.364c-2.148,2.009-4.458,3.014-6.93,3.014
		c-3.121,0-5.702-1.128-7.741-3.385c-2.024-2.302-3.036-5.176-3.036-8.621c0-3.385,1.012-6.204,3.036-8.46
		c2.024-2.256,4.558-3.384,7.602-3.384c2.627,0,4.983,1.081,7.069,3.244V265.843z M208.201,277.061c0,2.163,0.58,3.925,1.738,5.284
		c1.19,1.375,2.688,2.062,4.497,2.062c1.931,0,3.492-0.664,4.682-1.993c1.19-1.375,1.785-3.121,1.785-5.238
		c0-2.116-0.595-3.862-1.785-5.238c-1.19-1.344-2.735-2.016-4.635-2.016c-1.792,0-3.292,0.68-4.497,2.039
		C208.796,273.338,208.201,275.037,208.201,277.061z"/>
	<path id="XMLID_35_" class="st0" d="M237.613,249.271v19.19c2.086-2.163,4.45-3.244,7.092-3.244c3.044,0,5.578,1.136,7.602,3.407
		c2.024,2.256,3.037,5.067,3.037,8.437c0,3.477-1.02,6.351-3.06,8.621c-2.024,2.257-4.582,3.385-7.672,3.385
		c-2.611,0-4.944-1.005-7-3.014v2.364h-5.215v-39.146H237.613z M250.013,277.293c0-2.163-0.587-3.925-1.761-5.284
		c-1.19-1.391-2.681-2.086-4.473-2.086c-1.917,0-3.477,0.672-4.682,2.016c-1.19,1.329-1.785,3.06-1.785,5.192
		c0,2.194,0.587,3.948,1.762,5.261c1.174,1.345,2.719,2.017,4.635,2.017c1.808,0,3.307-0.672,4.497-2.017
		C249.411,281.032,250.013,279.332,250.013,277.293z"/>
	<path id="XMLID_33_" class="st0" d="M273.979,269.69l-4.311,2.295c-0.68-1.391-1.522-2.086-2.526-2.086
		c-0.479,0-0.889,0.158-1.229,0.475c-0.34,0.317-0.51,0.723-0.51,1.217c0,0.866,1.004,1.724,3.013,2.573
		c2.766,1.189,4.627,2.287,5.585,3.291c0.958,1.005,1.437,2.356,1.437,4.056c0,2.179-0.804,4.003-2.411,5.471
		c-1.561,1.391-3.446,2.086-5.655,2.086c-3.786,0-6.467-1.847-8.043-5.54l4.45-2.062c0.618,1.082,1.089,1.77,1.414,2.062
		c0.633,0.588,1.391,0.881,2.271,0.881c1.762,0,2.643-0.803,2.643-2.41c0-0.928-0.68-1.792-2.04-2.596
		c-0.526-0.263-1.051-0.518-1.576-0.766c-0.525-0.246-1.059-0.502-1.599-0.765c-1.515-0.741-2.581-1.483-3.199-2.225
		c-0.788-0.942-1.182-2.155-1.182-3.639c0-1.963,0.672-3.585,2.017-4.867c1.375-1.282,3.044-1.924,5.006-1.924
		C270.424,265.217,272.572,266.709,273.979,269.69z"/>
</g>
<g id="XMLID_28_">
	<g id="XMLID_30_">
		<circle id="XMLID_31_" class="st1" cx="136.271" cy="110.72" r="109.22"/>
	</g>
	<rect id="XMLID_29_" x="59.902" y="34.351" class="st1" width="152.738" height="152.738"/>
</g>
<g id="XMLID_25_" class="st2">
	<circle id="XMLID_27_" class="st3" cx="136.271" cy="110.912" r="73.026"/>
</g>
<g id="XMLID_15_">
	<g id="XMLID_22_">
		<path id="XMLID_23_" class="st0" d="M293.505,261.02v0.712h-1.861v5.61h-0.874v-5.61h-1.86v-0.712H293.505z"/>
	</g>
	<g id="XMLID_17_">
		<path id="XMLID_19_" class="st0" d="M303.701,261.02h0.788l0.456,6.322h-0.835l-0.304-4.927l-1.823,3.787h-0.893l-1.823-3.787
			l-0.304,4.927h-0.835l0.456-6.322h0.788l2.165,4.471L303.701,261.02z"/>
	</g>
</g>
</svg>