<svg xmlns="http://www.w3.org/2000/svg" viewBox="0 0 757.02 128.07"><path d="M184.46 114c0-3.62.86-5.34 3.1-8.1l36.34-45.42a101 101 0 0 1 7.41-8.09V52a65.55 65.55 0 0 1-8.1.34h-29.8c-4.82 0-7.23-2.6-7.23-7.23V41c0-4.65 2.4-7.23 7.23-7.23h60.27c4.65 0 7.23 2.07 7.23 5.86v1.72c0 3.6-.86 5.34-3.1 8.1L221.5 95.1a64.31 64.31 0 0 1-7.58 8.09v.34a47.85 47.85 0 0 1 8.27-.51h32.72c4.82 0 7.23 2.58 7.23 7.23v4.13q0 7.23-7.23 7.24h-63.2c-4.65 0-7.23-2.07-7.23-5.86zm130.37-84.35c26.7 0 48.4 19.12 48.4 46 0 27-21.7 46-48.4 46s-48.22-18.94-48.22-46c0-26.88 21.53-46 48.22-46zm0 73.37C329.13 103 341 92 341 75.64c0-16.2-11.88-27.38-26.18-27.38s-26 11.2-26 27.38c.01 16.36 11.72 27.36 26 27.36zm102.82-73.37c26.7 0 48.4 19.12 48.4 46 0 27-21.7 46-48.4 46s-48.22-18.94-48.22-46c-.01-26.88 21.57-46 48.22-46zm0 73.37c14.3 0 26.18-11 26.18-27.38 0-16.2-11.9-27.38-26.18-27.38s-26 11.2-26 27.38c-.01 16.36 11.7 27.36 26 27.36zM477.75 41c0-4.65 2.4-7.23 7.06-7.23h6.72c4.65 0 7.06 2.58 7.06 7.23v5.34a28.06 28.06 0 0 1-.34 4h.34c4.3-8.6 15-18.6 28.76-18.6 13.26 0 22 6.2 25.66 18.08h.34c4.65-9.13 16.2-18.08 30-18.08 18.25 0 28.76 10.33 28.76 33.4v49.25c0 4.82-2.58 7.24-7.23 7.24h-7.4q-7.24 0-7.23-7.24V69.26c0-10-1.9-17.57-12.06-17.57-14.8 0-22.4 15.16-22.4 30.48v32.2c0 4.82-2.4 7.24-7.06 7.24h-7.57c-4.65 0-7.23-2.4-7.23-7.24v-45.1c0-9.47-1.38-17.57-11.7-17.57-15.5 0-22.73 15.85-22.73 30.48v32.2c0 4.82-2.4 7.24-7.06 7.24h-7.58c-4.65 0-7.06-2.4-7.06-7.24zM628.1 18.84v-5.16c0-4.65 2.4-7.23 7.06-7.23h7.58c4.65 0 7.23 2.58 7.23 7.23v5.16c0 4.65-2.58 7.06-7.23 7.06h-7.58c-4.65.01-7.06-2.4-7.06-7.06zm0 22.18c0-4.65 2.4-7.23 7.06-7.23h7.58c4.65 0 7.06 2.58 7.06 7.23v73.36c0 4.82-2.4 7.24-7.06 7.24h-7.58c-4.65 0-7.06-2.4-7.06-7.24zm39.08-.02c0-4.65 2.4-7.23 7.06-7.23H681c4.65 0 7.06 2.58 7.06 7.23v5.34a28.4 28.4 0 0 1-.34 4h.28a34.26 34.26 0 0 1 31.17-18.6c19.46 0 30.66 10.16 30.66 33.4v49.25q0 7.23-7.23 7.24h-7.4c-4.65 0-7.23-2.4-7.23-7.24V69.6c0-10.68-2.76-17.9-13.78-17.9-15.5 0-25.32 12.92-25.32 28.76v33.92c0 4.82-2.4 7.24-7.06 7.24h-7.57c-4.65 0-7.06-2.4-7.06-7.24z" fill="#fcb131"/><g fill="#fff"><circle cx="127.69" cy="48.96" r="12.97"/><circle cx="75.07" cy="78.61" r="38.34"/><circle cx="129.91" cy="46.71" r="9.16"/><circle cx="75.14" cy="79.55" r="38.81"/></g><path d="M130.14 121.62V54.8a8.24 8.24 0 1 0 0-16.48v-4.58a13 13 0 0 1 13 13v61.76a13.09 13.09 0 0 1-13 13.12zM109.4 77.68a34.12 34.12 0 0 1-34.17 34.18v9.77h54.92V54.8a8.24 8.24 0 1 1 0-16.48v-4.58H106.8c-.46-.46-1.83-2.14-6.4-6.56-6.25-6.26-5.8-7.93-13-7.93H75.22v24.1a34.25 34.25 0 0 1 34.17 34.33zm-34.17 34.18a34.255 34.255 0 1 1 0-68.51v-24.1H63c-7.32 0-8.1 2.9-13.12 7.93a87.23 87.23 0 0 0-6.25 6.56H20.3a13.09 13.09 0 0 0-13.12 13v61.76a13.22 13.22 0 0 0 13.12 13.12h54.93zM65.15 69c3.2-2.74 6.26-7 3.66-7a9.12 9.12 0 0 0-3.66.76v-3.2a20.12 20.12 0 0 1 10.07-2.6 20.68 20.68 0 0 1 0 41.35 20.2 20.2 0 0 1-10.07-2.59zm-4.73 1.38c0 2 2.3.76 4.73-1.38v26.7a20.43 20.43 0 0 1-10.68-18 20.67 20.67 0 0 1 10.68-18.17v3.2a8.57 8.57 0 0 0-4.74 7.63z" fill="#f47937" fill-rule="evenodd"/><path d="M92.45 78.6a17.32 17.32 0 1 1-34.63 0c0-9.6 34.63-9.6 34.63 0z" fill="#fcb131" fill-rule="evenodd"/></svg>